<svg width="1em" height="1em" viewBox="0 0 140 53" fill="currentColor" xmlns="http://www.w3.org/2000/svg" aria-hidden="true" focusable="false" class=""><path d="M57.3329 9.84327C57.037 10.1675 56.6119 10.3753 56.1359 10.3753C56.035 10.3753 55.9351 10.364 55.8395 10.3456C55.4846 10.2806 55.1728 10.0987 54.9397 9.84327C54.6799 9.55931 54.5181 9.18866 54.5181 8.77719C54.5181 7.89731 55.2445 7.18028 56.1359 7.18028C57.0281 7.18028 57.7539 7.89731 57.7539 8.77719C57.7539 9.18866 57.5916 9.55931 57.3329 9.84327ZM50.9998 4.76736C50.7616 4.90242 50.4904 4.98581 50.1974 4.98581C49.3056 4.98581 48.5799 4.26837 48.5799 3.38756C48.5799 2.50696 49.3056 1.79065 50.1974 1.79065C51.0885 1.79065 51.813 2.50541 51.8164 3.38456V3.38756C51.8164 3.97873 51.4838 4.49095 50.9998 4.76736ZM44.2033 15.2908C43.7902 15.2908 43.4156 15.1316 43.1297 14.879C42.7983 14.5858 42.5863 14.165 42.5863 13.6934C42.5863 12.8126 43.3119 12.0952 44.2033 12.0952C45.0951 12.0952 45.8213 12.8126 45.8213 13.6934C45.8213 14.165 45.6077 14.5858 45.2771 14.879C44.9914 15.1316 44.6177 15.2908 44.2033 15.2908ZM32.8924 50.1954H26.6727L26.4672 49.2557L26.4179 49.027H31.8295L34.1847 38.4674L35.5825 37.8794L32.8924 50.1954ZM15.3625 15.2908C14.9486 15.2908 14.5751 15.1316 14.2888 14.879C13.9577 14.5858 13.745 14.165 13.745 13.6934C13.745 12.8126 14.4707 12.0952 15.3625 12.0952C16.2535 12.0952 16.98 12.8126 16.98 13.6934C16.98 14.165 16.7675 14.5858 16.4362 14.879C16.1503 15.1316 15.7756 15.2908 15.3625 15.2908ZM9.36761 4.98581C9.07473 4.98581 8.80425 4.90242 8.56684 4.76736C8.08164 4.49095 7.75015 3.97873 7.75015 3.38756V3.38456C7.75214 2.50541 8.47632 1.79065 9.36761 1.79065C10.2611 1.79065 10.9856 2.50696 10.9856 3.38756C10.9856 4.26837 10.2611 4.98581 9.36761 4.98581ZM3.7267 10.3456C3.62918 10.364 3.53051 10.3753 3.42954 10.3753C2.95365 10.3753 2.52842 10.1675 2.23293 9.84327C1.97395 9.55931 1.81166 9.18866 1.81166 8.77719C1.81166 7.89731 2.537 7.18028 3.42954 7.18028C4.32093 7.18028 5.04773 7.89731 5.04773 8.77719C5.04773 9.18866 4.88596 9.55931 4.62657 9.84327C4.39386 10.0987 4.08163 10.2806 3.7267 10.3456ZM56.1359 5.39066C54.2432 5.39066 52.7052 6.91007 52.7052 8.77719C52.7052 10.155 53.5419 11.3401 54.7409 11.8692V16.507L51.5932 18.0672V6.47845C52.7904 5.95021 53.6289 4.76416 53.6289 3.38756C53.6289 2.71135 53.4235 2.08071 53.0767 1.55206C52.465 0.619585 51.4045 0 50.1974 0C48.3059 0 46.7677 1.5193 46.7677 3.38756C46.7677 4.76416 47.6048 5.95022 48.802 6.47876V23.7874L45.6001 25.1899V16.7846C46.797 16.2552 47.6338 15.07 47.6338 13.6934C47.6338 11.8254 46.0945 10.305 44.2033 10.305C42.3114 10.305 40.7737 11.8254 40.7737 13.6934C40.7737 15.07 41.6101 16.2552 42.8079 16.7846V25.8906L37.794 27.7616L36.3371 34.4289L32.0662 35.9399L32.0604 35.9706L29.787 46.2353L25.8105 46.2479L24.0015 37.8809L26.7504 39.0759L25.8695 35.3755L23.2857 34.4441L21.8235 27.7228L16.7575 25.8906V16.7846C17.9562 16.2552 18.7932 15.07 18.7932 13.6934C18.7932 11.8254 17.2536 10.305 15.3625 10.305C13.4713 10.305 11.9317 11.8254 11.9317 13.6934C11.9317 15.07 12.7695 16.2552 13.9662 16.7846V25.1899L10.7639 23.7874V6.47876C11.9603 5.95022 12.7981 4.76416 12.7981 3.38756C12.7981 1.5193 11.2595 0 9.36761 0C8.16106 0 7.10037 0.619585 6.48877 1.55206C6.14075 2.08071 5.93766 2.71135 5.93766 3.38756C5.93766 4.76416 6.77443 5.95021 7.97219 6.47845V18.0672L4.82496 16.507V11.8692C6.02293 11.3401 6.86033 10.155 6.86033 8.77719C6.86033 6.91007 5.32145 5.39066 3.42954 5.39066C1.53804 5.39066 0 6.91007 0 8.77719C0 10.155 0.83698 11.3401 2.03244 11.8692V18.2072L7.97219 21.1527V25.8906L19.4738 30.097L19.7775 31.4969L11.7025 28.5072V31.4408L20.4979 34.8167L24.4431 53H35.122L39.1463 34.4552L39.078 34.8327L47.8773 31.6206V28.5142L39.7833 31.517L40.0916 30.097L51.5932 25.8906V21.1527L57.5318 18.2072V11.8692C58.73 11.3401 59.5651 10.155 59.5651 8.77719C59.5651 6.91007 58.0271 5.39066 56.1359 5.39066Z" fill="#6B4ACB"></path><path d="M81.1921 52.917C80.4467 52.917 79.8665 52.7133 79.4516 52.306C79.0366 51.8987 78.8291 51.3171 78.8291 50.5613V47.6758H80.0367V50.5172C80.0367 51.4399 80.4244 51.9011 81.1995 51.9011C81.5773 51.9011 81.8654 51.7894 82.0642 51.5662C82.263 51.3429 82.3624 50.9933 82.3624 50.5172V47.6758H83.5551V50.5613C83.5551 51.3171 83.3476 51.8987 82.9326 52.306C82.5177 52.7133 81.9375 52.917 81.1921 52.917ZM89.5332 47.6758V52.8286H88.5418L85.9403 49.7V52.8286H84.7477V47.6758H85.7466L88.3406 50.8043V47.6758H89.5332ZM90.7706 47.6758H91.9782V52.8286H90.7706V47.6758ZM98.2024 47.6758L95.9437 52.8286H94.7511L92.5 47.6758H93.8044L95.3922 51.3564L97.0022 47.6758H98.2024ZM102.675 51.8717V52.8286H98.6347V47.6758H102.578V48.6327H99.8348V49.7516H102.257V50.6791H99.8348V51.8717H102.675ZM106.961 52.8286L105.955 51.3932H105.895H104.844V52.8286H103.636V47.6758H105.895C106.357 47.6758 106.758 47.7518 107.099 47.9039C107.439 48.056 107.701 48.272 107.885 48.5517C108.069 48.8314 108.161 49.1627 108.161 49.5455C108.161 49.9283 108.068 50.2583 107.881 50.5356C107.695 50.8128 107.431 51.0251 107.088 51.1723L108.258 52.8286H106.961ZM106.939 49.5455C106.939 49.2559 106.844 49.0339 106.655 48.8793C106.467 48.7247 106.191 48.6474 105.828 48.6474H104.844V50.4436H105.828C106.191 50.4436 106.467 50.3651 106.655 50.208C106.844 50.051 106.939 49.8301 106.939 49.5455ZM110.83 52.917C110.417 52.917 110.018 52.8618 109.633 52.7513C109.248 52.6409 108.939 52.4974 108.705 52.3208L109.115 51.4226C109.339 51.5846 109.605 51.7146 109.913 51.8128C110.221 51.9109 110.529 51.96 110.837 51.96C111.18 51.96 111.433 51.9097 111.597 51.8091C111.761 51.7085 111.843 51.5748 111.843 51.4079C111.843 51.2853 111.795 51.1834 111.698 51.1024C111.601 51.0215 111.477 50.9565 111.325 50.9074C111.174 50.8583 110.969 50.8043 110.71 50.7454C110.313 50.6522 109.987 50.5589 109.734 50.4656C109.481 50.3724 109.263 50.2227 109.082 50.0166C108.9 49.8105 108.81 49.5356 108.81 49.1922C108.81 48.8928 108.892 48.6217 109.056 48.3787C109.22 48.1358 109.467 47.9432 109.797 47.8009C110.128 47.6585 110.532 47.5874 111.009 47.5874C111.342 47.5874 111.667 47.6267 111.985 47.7052C112.303 47.7837 112.581 47.8966 112.82 48.0438L112.447 48.9492C111.965 48.6793 111.483 48.5444 111.001 48.5444C110.663 48.5444 110.413 48.5983 110.252 48.7063C110.09 48.8143 110.01 48.9566 110.01 49.1333C110.01 49.31 110.103 49.4412 110.289 49.5271C110.476 49.6129 110.76 49.6977 111.143 49.7811C111.54 49.8743 111.866 49.9676 112.119 50.0608C112.373 50.154 112.59 50.3012 112.772 50.5024C112.953 50.7037 113.044 50.9761 113.044 51.3196C113.044 51.6141 112.96 51.8827 112.794 52.1257C112.627 52.3686 112.378 52.5612 112.045 52.7035C111.712 52.8458 111.307 52.917 110.83 52.917ZM113.871 47.6758H115.079V52.8286H113.871V47.6758ZM117.397 48.6474H115.727V47.6758H120.274V48.6474H118.604V52.8286H117.397V48.6474ZM123.33 51.0031V52.8286H122.123V50.9883L120.103 47.6758H121.385L122.779 49.9651L124.173 47.6758H125.358L123.33 51.0031Z" fill="#6B4ACB"></path><path d="M73.9765 31.9211V37.0931H70.8865V31.9211L64.1875 20.3972H67.7469L72.4315 28.4557L77.1163 20.3972H80.6755L73.9765 31.9211Z" fill="#1A2028"></path><path d="M78.2998 37.0485H90.264V40.1002H78.2998V37.0485Z" fill="#1A2028"></path><path d="M128.405 34.0213H134.918C135.464 34.0213 135.962 33.7995 136.324 33.4424C136.685 33.0853 136.91 32.5935 136.91 32.0543C136.91 31.5147 136.685 31.0232 136.324 30.666C135.962 30.3089 135.464 30.0871 134.918 30.0871H134.282H128.405V34.0213ZM96.2424 20.6752V34.023H104.691V37.0745H93.1523V20.6752H96.2424ZM120.777 37.0778L114.94 24.8319L109.103 37.0778H105.734V36.9972L113.546 20.6076H116.335L124.146 36.9972V37.0778H120.777ZM125.315 27.0354V20.6248H134.282C135.597 20.6248 136.793 21.1567 137.661 22.0131L137.667 22.0191C138.534 22.8759 139.073 24.0573 139.073 25.3558C139.073 26.4078 138.721 27.3823 138.129 28.1695C138.261 28.2764 138.388 28.3894 138.509 28.5084C139.429 29.4171 140 30.6723 140 32.0541C140 33.4359 139.429 34.6911 138.509 35.5999C137.588 36.5087 136.317 37.073 134.918 37.073H125.315V28.5612V27.0354ZM134.282 27.0354C134.752 27.0354 135.177 26.8482 135.482 26.5469V26.5409C135.791 26.2359 135.983 25.8161 135.983 25.3559C135.983 24.8929 135.792 24.4726 135.485 24.1677C135.176 23.8648 134.751 23.6764 134.282 23.6764H128.405V27.0354H134.282Z" fill="#1A2028"></path><path fill-rule="evenodd" clip-rule="evenodd" d="M114.858 37.078H111.39C111.39 35.1865 112.943 33.653 114.858 33.653C116.773 33.653 118.326 35.1865 118.326 37.078H114.858Z" fill="#6B4ACB"></path></svg>